<svg width="400" height="400" viewBox="0 0 400 400" fill="none" xmlns="http://www.w3.org/2000/svg">
  <rect width="400" height="400" rx="40" fill="white"/>
  <rect x="50" y="50" width="300" height="300" fill="#111827"/>
  <rect x="70" y="70" width="260" height="260" fill="white"/>
  <!-- Top Left Square -->
  <rect x="80" y="80" width="60" height="60" fill="#111827"/>
  <rect x="90" y="90" width="40" height="40" fill="white"/>
  <rect x="100" y="100" width="20" height="20" fill="#111827"/>
  <!-- Top Right Square -->
  <rect x="260" y="80" width="60" height="60" fill="#111827"/>
  <rect x="270" y="90" width="40" height="40" fill="white"/>
  <rect x="280" y="100" width="20" height="20" fill="#111827"/>
  <!-- Bottom Left Square -->
  <rect x="80" y="260" width="60" height="60" fill="#111827"/>
  <rect x="90" y="270" width="40" height="40" fill="white"/>
  <rect x="100" y="280" width="20" height="20" fill="#111827"/>
  
  <!-- Random QR-like pattern -->
  <rect x="150" y="80" width="20" height="20" fill="#111827"/>
  <rect x="180" y="100" width="40" height="20" fill="#111827"/>
  <rect x="230" y="80" width="20" height="60" fill="#111827"/>
  <rect x="150" y="150" width="100" height="20" fill="#111827"/>
  <rect x="260" y="150" width="60" height="20" fill="#111827"/>
  <rect x="150" y="180" width="20" height="100" fill="#111827"/>
  <rect x="180" y="260" width="60" height="20" fill="#111827"/>
  <rect x="260" y="180" width="20" height="60" fill="#111827"/>
  <rect x="290" y="260" width="30" height="60" fill="#111827"/>
  <rect x="230" y="290" width="20" height="20" fill="#111827"/>
  
  <!-- GPay Logo Placeholder in Center -->
  <circle cx="200" cy="200" r="45" fill="white" stroke="#E5E7EB" stroke-width="2"/>
  <path d="M185 200C185 191.716 191.716 185 200 185C208.284 185 215 191.716 215 200C215 208.284 208.284 215 200 215C191.716 215 185 208.284 185 200Z" fill="#F3F4F6"/>
  <text x="200" y="208" font-family="Arial" font-size="24" font-weight="bold" text-anchor="middle" fill="#5F6368">G</text>
</svg>
